# xmcd
#
# Track frame offsets:
#	150
#	7135
#	22487
#	37020
#	58725
#	71386
#	84519
#	105802
#	120913
#	139990
#
# Disc length: 2071 seconds
#
# Revision: 0
# Processed by: cddbd v1.5.2PL0 Copyright (c) Steve Scherf et al.
# Submitted via: EasyCDDAExtractor 10.0.3.1
#
DISCID=8408150a
DTITLE=Kevin Max - The Blood
DYEAR=2008
DGENRE=Gospel
TTITLE0=The Old Rugged Cross
TTITLE1=The Cross (feat. DC Talk)
TTITLE2=Run On For A Long Time (feat. Chris Sligh)
TTITLE3=Trouble Of The World
TTITLE4=I Know His Blood Can Make Me Whole
TTITLE5=Up Above My Head I Hear Music In The Air (feat. Amy Grant and Vince Gill
TTITLE5=)
TTITLE6=They Won't Go When I Go
TTITLE7=The Blood Will Never Lose Its Power
TTITLE8=People Get Ready (feat. Erica Campbell of Mary Mary)
TTITLE9=One Way-One Blood (feat. Joanne Cash)
EXTD=
EXTT0=
EXTT1=
EXTT2=
EXTT3=
EXTT4=
EXTT5=
EXTT6=
EXTT7=
EXTT8=
EXTT9=
PLAYORDER=
